<?xml version="1.0" encoding="utf-8"?>
<!-- Generator: Adobe Illustrator 25.2.3, SVG Export Plug-In . SVG Version: 6.00 Build 0)  -->
<svg version="1.1" id="Capa_1" xmlns="http://www.w3.org/2000/svg" xmlns:xlink="http://www.w3.org/1999/xlink" x="0px" y="0px"
	 viewBox="0 0 95.6 95.6" style="enable-background:new 0 0 95.6 95.6;" xml:space="preserve">
<style type="text/css">
	.st0{fill:#24BF87;}
</style>
<g>
	<path class="st0" d="M71.7,6.4c-0.5-0.6-1.3-0.9-2.1-0.9h-1.1c-1.6,0-3,1.3-3.2,2.9L63.7,21c-0.1,0.6-0.7,1.3-1.4,1.4l-7.5,1.2
		L49,24.1l0,0l-4.4,0.4c-1.4,0.1-3,1.2-3.7,2.5l-8,15.4c-0.7,1.3-0.6,3.2,0.3,4.5l8,11.7c0.8,1.1,2.3,1.9,3.7,1.9l0,0
		c0.1,0,0.2,0,0.3,0h0.2v0.1l-3.1,7.9c-0.4,1.1-1.7,2.4-2.8,2.8l-14.3,5.5c-0.9,0.4-1.6,1.1-1.8,1.9s0.1,1.8,0.7,2.6l1.3,1.4
		c0.9,1,2.3,1.6,3.7,1.6c0.6,0,1.1-0.1,1.6-0.3L45,78.5c1.6-0.6,3.3-2.3,4-3.9l4.7-10.9l4.1,7.3c0.6,1.1,1,3.1,0.9,4.3l-1.4,16.8
		c-0.1,0.9,0.2,1.8,0.8,2.4s1.4,1,2.3,1c0.1,0,0.2,0,0.3,0l1.9-0.2c1.9-0.2,3.5-1.8,3.7-3.8l1.4-16.8c0.1-1.6-0.2-4-0.7-5.5l-3.8-11
		L61,30.1l6.6-0.9c1.5-0.2,2.9-1.6,3-3.2l1.7-17.4C72.4,7.8,72.2,7,71.7,6.4z M45.2,52l-4.4-5.9c-0.4-0.6-0.5-1.6-0.1-2.2l4.2-7
		L45.2,52z"/>
	<path class="st0" d="M48.3,20.3c1.2,0,2.4-0.2,3.5-0.6c2.5-0.9,4.6-2.8,5.7-5.3c1.1-2.5,1.2-5.2,0.3-7.8c-1.5-4-5.3-6.6-9.5-6.6
		c-1.2,0-2.4,0.2-3.5,0.6c-5.3,2-7.9,7.8-6,13.1C40.2,17.7,44,20.3,48.3,20.3z"/>
</g>
</svg>
