<?xml version="1.0" encoding="utf-8"?>
<!-- Generator: Adobe Illustrator 25.2.3, SVG Export Plug-In . SVG Version: 6.00 Build 0)  -->
<svg version="1.1" id="Layer_1" xmlns="http://www.w3.org/2000/svg" xmlns:xlink="http://www.w3.org/1999/xlink" x="0px" y="0px"
	 viewBox="0 0 268 132" style="enable-background:new 0 0 268 132;" xml:space="preserve">
<style type="text/css">
	.st0{fill:#0F0E0F;}
	.st1{fill:none;stroke:#34333A;}
	.st2{fill:none;stroke:#646471;}
	.st3{fill-rule:evenodd;clip-rule:evenodd;fill:#FFFFFF;}
	.st4{fill:#646471;}
	.st5{fill:#FFFFFF;}
	.st6{fill:none;stroke:#FFFFFF;stroke-width:1.5;}
	.st7{fill:none;stroke:#FFFFFF;}
	.st8{fill:#B7BBDC;}
	.st9{fill:#868490;}
	.st10{fill:#3D3150;}
	.st11{fill:#FF3E65;}
	.st12{fill:#6991FF;}
	.st13{fill:#1CF09A;}
	.st14{fill:#532933;}
	.st15{fill:#F73C5B;}
</style>
<path class="st0" d="M6,0h256c3.3,0,6,2.7,6,6v120c0,3.3-2.7,6-6,6H6c-3.3,0-6-2.7-6-6V6C0,2.7,2.7,0,6,0z"/>
<path class="st1" d="M187.5,92l0.5,1.5"/>
<path class="st1" d="M188.5,99.5L188.5,99.5c0.3,1.6-0.1,3.2-1.1,4.5l-0.4,0.5"/>
<path class="st1" d="M73.5,97.5L73.5,97.5c-0.3-1.6,0-3.3,0.8-4.7l0.2-0.3"/>
<path class="st1" d="M73.5,97.5L73.5,97.5c-0.3-1.6,0-3.3,0.8-4.7l0.2-0.3"/>
<path class="st1" d="M75.5,105l-0.5-2"/>
<path class="st2" d="M173.5,97.5l12.5,1"/>
<path class="st3" d="M138.5,50v3.9l-7.1-4.1l7.1-4.1V49h3.4c3.4,0,6.1,2.7,6.1,6.1c0,3.4-2.7,6.1-6.1,6.1h-15.8
	c-3.4,0-6.1-2.7-6.1-6.1c0-3.4,2.7-6.1,6.1-6.1h0.9v1h-0.7c-2.8,0-5,2.2-5,5s2.2,5,5,5h15.4c2.8,0,5-2.2,5-5s-2.2-5-5-5H138.5z"/>
<rect x="117" y="34" class="st4" width="1" height="3"/>
<rect x="134" y="32" class="st4" width="1" height="7"/>
<rect x="125" y="34" class="st4" width="1" height="3"/>
<rect x="142" y="34" class="st4" width="1" height="3"/>
<rect x="150" y="33" class="st5" width="1" height="5"/>
<circle class="st6" cx="191" cy="53" r="33.2"/>
<path class="st2" d="M73.5,100.5L58,81"/>
<path class="st2" d="M166.5,97l-26,4.5"/>
<path class="st2" d="M128.5,101.5L103,98"/>
<path class="st2" d="M206.2,63.1L194.5,97"/>
<path class="st2" d="M92,98.5l-13.5,4"/>
<circle class="st7" cx="191.5" cy="96.5" r="3"/>
<circle class="st7" cx="76.5" cy="100.5" r="3"/>
<circle class="st7" cx="171.5" cy="100.5" r="6"/>
<path class="st5" d="M169,102.3l4.2-4.2c0.2-0.2,0.5-0.2,0.7,0l0,0c0.2,0.2,0.2,0.5,0,0.7l-4.2,4.2c-0.2,0.2-0.5,0.2-0.7,0l0,0
	C168.8,102.8,168.8,102.5,169,102.3z"/>
<circle class="st7" cx="97.5" cy="100.5" r="6"/>
<circle class="st5" cx="97.5" cy="100.5" r="1.5"/>
<path class="st3" d="M129,93h11v8.1l-1.7,0.1c-1.1,0.1-2.2,0.1-3.3,0.1V97h-1v4.3c-1.1,0-2.2-0.1-3.3-0.1l-1.7-0.1V93z M138.3,102.2
	l2.7-0.2v-9v-1h-1h-11h-1v1v9l2.7,0.2C133.2,102.4,135.8,102.4,138.3,102.2z"/>
<rect x="134" y="104" class="st8" width="1" height="25"/>
<rect x="23" y="109" class="st9" width="1" height="6"/>
<rect x="65" y="109" class="st9" width="1" height="6"/>
<rect x="108" y="109" class="st9" width="1" height="6"/>
<rect x="151" y="109" class="st9" width="1" height="6"/>
<rect x="194" y="109" class="st9" width="1" height="6"/>
<rect x="237" y="109" class="st9" width="1" height="6"/>
<rect x="16" y="122" class="st10" width="34" height="1"/>
<rect x="16" y="120" class="st10" width="42" height="1"/>
<rect x="61" y="120" class="st10" width="19" height="1"/>
<rect x="82" y="120" class="st10" width="10" height="1"/>
<rect x="114" y="120" class="st10" width="1" height="1"/>
<rect x="123" y="120" class="st10" width="1" height="1"/>
<rect x="126" y="120" class="st10" width="81" height="1"/>
<rect x="117" y="120" class="st10" width="3" height="1"/>
<rect x="213" y="120" class="st10" width="1" height="1"/>
<rect x="216" y="120" class="st10" width="36" height="1"/>
<rect x="84" y="124" class="st10" width="81" height="1"/>
<rect x="16" y="124" class="st10" width="58" height="1"/>
<rect x="77" y="124" class="st10" width="1" height="1"/>
<rect x="198" y="124" class="st10" width="11" height="1"/>
<rect x="167" y="124" class="st10" width="1" height="1"/>
<rect x="176" y="124" class="st10" width="1" height="1"/>
<rect x="170" y="124" class="st10" width="3" height="1"/>
<rect x="16" y="117" class="st11" width="59" height="1"/>
<rect x="77" y="117" class="st11" width="1" height="1"/>
<rect x="84" y="117" class="st12" width="81" height="1"/>
<rect x="167" y="117" class="st11" width="1" height="1"/>
<rect x="176" y="117" class="st11" width="1" height="1"/>
<rect x="198" y="117" class="st11" width="11" height="1"/>
<rect x="170" y="117" class="st11" width="4" height="1"/>
<circle class="st13" cx="134.8" cy="114.2" r="1.8"/>
<circle class="st13" cx="186.2" cy="114.2" r="1.8"/>
<rect x="133.8" y="113.9" class="st13" width="52.3" height="0.7"/>
<circle class="st6" cx="76" cy="53" r="33.2"/>
<rect x="245" y="14" class="st14" width="1" height="86"/>
<rect x="245" y="66" class="st15" width="1" height="34"/>
<circle class="st15" cx="245.5" cy="47.8" r="2.5"/>
</svg>
