<?xml version="1.0" encoding="utf-8"?>
<!-- Generator: Adobe Illustrator 25.2.3, SVG Export Plug-In . SVG Version: 6.00 Build 0)  -->
<svg version="1.1" id="Capa_1" xmlns="http://www.w3.org/2000/svg" xmlns:xlink="http://www.w3.org/1999/xlink" x="0px" y="0px"
	 viewBox="0 0 512 512" style="enable-background:new 0 0 512 512;" xml:space="preserve">
<style type="text/css">
	.st0{fill:#24BF87;}
</style>
<g>
	<g>
		<path class="st0" d="M500.4,2c-7.2-4.2-16.3-1.7-20.5,5.5L456,49.9c-18.2-3.3-37.3,4.7-47.1,21.6c-6,10.4-7.6,22.5-4.5,34.1
			c1.8,6.6,5.2,12.2,9.4,17.3l-124,214.8c6.8,3.2,13.2,7.4,18.6,12.8c1.8,1.8,4.1,2.8,6.3,4.2L439.8,138c2.7,0.5,5.3,1,8,1
			c15.6,0,30.7-8.1,39.1-22.5c9.8-16.9,7.1-37.5-4.9-51.6l23.9-42.4C510.1,15.3,507.6,6.2,500.4,2z"/>
	</g>
</g>
<g>
	<g>
		<path class="st0" d="M441,458.7L428.5,391h-94.4c-17.4,0-34.5-7.1-46.8-19.4c-6.9-6.9-15.9-10.6-25.6-10.6h-77.6
			c-9.7,0-18.8,3.8-25.6,10.6C146,384.1,129.4,391,111.7,391H17.4L4.9,458.7c-2.5,13.2,1,26.7,9.6,37C23,506.1,35.6,512,49.1,512
			h347.7c13.4,0,26.1-5.9,34.6-16.3C440,485.4,443.5,471.9,441,458.7z M252.9,421h-60c-8.3,0-15-6.7-15-15s6.7-15,15-15h60
			c8.3,0,15,6.7,15,15S261.2,421,252.9,421z"/>
	</g>
</g>
<g>
	<g>
		<path class="st0" d="M362.3,36.7C358.3,15.5,339.7,0,318,0H127.8c-21.6,0-40.3,15.4-44.2,36.7L23,361h88.7
			c9.7,0,18.8-3.8,25.6-10.6c12.5-12.5,29.1-19.4,46.8-19.4h23.8v-30h-15c-8.3,0-15-6.7-15-15s6.7-15,15-15h15v-60h-45
			c-8.3,0-15-6.7-15-15s6.7-15,15-15h45v-60h-15c-8.3,0-15-6.7-15-15s6.7-15,15-15h15V76c0-8.3,6.7-15,15-15s15,6.7,15,15v15h15
			c8.3,0,15,6.7,15,15s-6.7,15-15,15h-15v60h45c8.3,0,15,6.7,15,15s-6.7,15-15,15h-45v60h15c8.3,0,15,6.7,15,15s-6.7,15-15,15h-15
			v30h21.2l119.4-206.8L362.3,36.7z"/>
	</g>
</g>
<g>
	<g>
		<polygon class="st0" points="403.9,260.1 345.7,361 422.9,361 		"/>
	</g>
</g>
</svg>
