<?xml version="1.0" encoding="utf-8"?>
<!-- Generator: Adobe Illustrator 25.3.1, SVG Export Plug-In . SVG Version: 6.00 Build 0)  -->
<svg version="1.1" id="Capa_1" xmlns="http://www.w3.org/2000/svg" xmlns:xlink="http://www.w3.org/1999/xlink" x="0px" y="0px"
	 viewBox="0 0 95.6 95.6" style="enable-background:new 0 0 95.6 95.6;" xml:space="preserve">
<style type="text/css">
	.st0{fill:#24BF87;}
</style>
<g>
	<path class="st0" d="M94.5,46.7c-0.1,0.7-0.3,1.3-0.4,2c-1.7,7.3-8.3,12.7-15.8,12.8c-5.6,0.1-11.1,0-16.8,0c0-0.3,0-0.7,0-1
		c0-4.1,0-8.2,0-12.3c0-5.1-3.5-8.6-8.6-8.6c-3.4,0-6.8,0-10.2,0c-5,0-8.5,3.5-8.5,8.6c0,4.1,0,8.2,0,12.2c0,0.3,0,0.7,0,0.9
		c-0.1,0.1-0.2,0.1-0.2,0.1c-4.4,0-8.9,0.2-13.3-0.2c-9.4-0.8-17.6-8.6-19.2-17.9c-2.1-12.3,6.2-23.7,18.6-25.5
		c1-0.2,2.1-0.2,3.2-0.2c0.6,0,0.8-0.2,1-0.7c2.3-7.3,7-12.3,14.2-14.8C49.9-1.7,62.5,5.1,65.9,17c0.2,0.6,0.5,0.9,1.1,1.1
		c5.4,1.3,8.9,4.7,10.4,10c0,0.1,0.1,0.3,0.1,0.4c1.5,0.2,2.9,0.3,4.3,0.6c6.6,1.6,11.5,6.9,12.5,13.7c0,0.2,0.1,0.4,0.2,0.6
		C94.5,44.5,94.5,45.6,94.5,46.7z"/>
	<path class="st0" d="M47,94.5c-0.7-0.6-1.5-1.2-2.1-1.9c-4.2-5.1-8.4-10.2-12.7-15.3c-0.8-1-1.2-2-0.6-3.3c0.6-1.2,1.6-1.6,2.9-1.6
		c1.6,0,3.3,0,5,0c0-0.4,0-0.8,0-1.2c0-7.7,0-15.3,0-23c0-2.2,1-3.2,3.2-3.2c3.4,0,6.8,0,10.1,0c2,0,3.1,1.1,3.1,3
		c0,7.7,0,15.5,0,23.2c0,0.4,0,0.7,0,1.2c1.8,0,3.4,0,5.1,0c1.3,0,2.3,0.4,2.8,1.6c0.6,1.2,0.2,2.2-0.6,3.2
		c-4.3,5.2-8.6,10.4-12.9,15.6c-0.5,0.7-1.3,1.1-1.9,1.7C48,94.5,47.5,94.5,47,94.5z"/>
</g>
</svg>
