<?xml version="1.0" encoding="utf-8"?>
<!-- Generator: Adobe Illustrator 25.2.3, SVG Export Plug-In . SVG Version: 6.00 Build 0)  -->
<svg version="1.1" id="Capa_1" xmlns="http://www.w3.org/2000/svg" xmlns:xlink="http://www.w3.org/1999/xlink" x="0px" y="0px"
	 viewBox="0 0 310.4 310.4" style="enable-background:new 0 0 310.4 310.4;" xml:space="preserve">
<style type="text/css">
	.st0{fill:#24BF87;}
</style>
<g>
	<path class="st0" d="M4.3,103.7l-4.1,33.6c-1.4,11.2,6.6,21.5,17.8,22.9l62.8,7.8c10.6-16.4,26.2-29.2,44.6-36.3l1.6-12.8
		c1.4-11.2-6.6-21.5-17.8-22.9l-82-10.1C15.9,84.5,5.7,92.5,4.3,103.7z"/>
	<path class="st0" d="M214.6,22.4L211.5,11l-18.6,5.6l3.1,11.2c-50.6,15.4-89,32-87.4,38c1.7,6.4,47.4-1.4,102.4-17.4l2,3.6
		c-4.7,2.2-8,7.2-8,13c0,6.2,3.8,11.4,9.1,13.4v4.7l-24.3,3c-11.2,1.4-19.2,11.6-17.8,22.9l2.2,18c14.8,2.5,28.4,8.6,39.9,17.3v3.3
		v3.4c-11.1-9.2-24.5-15.7-39.3-18.5c-5.3-1-10.7-1.6-16.2-1.6c-12,0-23.4,2.4-33.7,6.8c-15.5,6.5-28.7,17.4-38.1,31.1
		c-9.6,14-15.3,30.9-15.3,49.2c0,14.5,3.6,28.2,9.9,40.3l-1.9,2.2l-1.8,2.1L58.9,284c-4.8,5.5-4.3,13.9,1.2,18.7
		c2.5,2.2,5.6,3.3,8.7,3.3c3.7,0,7.3-1.5,10-4.5L94,283.9l1.7-2l1.8-2c15.7,15.5,37.3,25,61,25c23.3,0,44.5-9.3,60.2-24.3l1.8,2
		l1.7,2l14.6,16.6c2.6,3,6.3,4.5,10,4.5c3.1,0,6.2-1.1,8.8-3.3c5.5-4.8,6-13.2,1.2-18.7l-17.9-20.3l-1.8-2.1l-1.9-2.1
		c6.7-12.3,10.5-26.4,10.5-41.4c0-20.3-7-38.9-18.7-53.7v-4.3v-3V156c0.2,0.2,0.5,0.5,0.7,0.8l53.3-6.6
		c11.2-1.4,19.2-11.6,17.9-22.9l-4.1-33.6c-1.4-11.2-11.6-19.2-22.9-17.8l-44.8,5.5v-5.5c3-2.6,5-6.5,5-10.9c0-5.2-2.6-9.6-6.5-12.1
		l-4.1-7.5C273,29.8,312.2,13,310.6,6.9C308.7,0.8,266.6,7.7,214.6,22.4z"/>
</g>
</svg>
