<?xml version="1.0" encoding="utf-8"?>
<!-- Generator: Adobe Illustrator 25.2.3, SVG Export Plug-In . SVG Version: 6.00 Build 0)  -->
<svg version="1.1" id="Layer" xmlns="http://www.w3.org/2000/svg" xmlns:xlink="http://www.w3.org/1999/xlink" x="0px" y="0px"
	 viewBox="0 0 512 512" style="enable-background:new 0 0 512 512;" xml:space="preserve">
<style type="text/css">
	.st0{fill:#B8BCC4;}
</style>
<path class="st0" d="M457.9,256l47-47c9.4-9.4,9.4-24.6,0-33.9c-9.4-9.4-24.6-9.4-33.9,0l-47,47l-47-47c-9.4-9.4-24.6-9.4-33.9,0
	c-9.4,9.4-9.4,24.6,0,33.9l47,47l-47,47c-9.4,9.4-9.4,24.6,0,33.9c4.7,4.7,10.8,7,17,7s12.3-2.3,17-7l47-47l47,47
	c4.7,4.7,10.8,7,17,7s12.3-2.3,17-7c9.4-9.4,9.4-24.6,0-33.9L457.9,256z"/>
<path class="st0" d="M99,160H44c-24.3,0-44,19.7-44,44v104c0,24.3,19.7,44,44,44h55c2.8,0,5-2.2,5-5V165C104,162.2,101.8,160,99,160
	z"/>
<path class="st0" d="M280,56h-24c-5.3,0-10.4,1.7-14.6,4.9L138,140.1c-1.2,0.9-2,2.4-2,4v224c0,1.6,0.7,3,2,4l103.5,79.1
	c4.2,3.2,9.3,4.9,14.6,4.9h24c13.3,0,24-10.7,24-24V80C304,66.7,293.3,56,280,56L280,56z"/>
</svg>
