<?xml version="1.0" encoding="utf-8"?>
<!-- Generator: Adobe Illustrator 25.2.3, SVG Export Plug-In . SVG Version: 6.00 Build 0)  -->
<svg version="1.1" id="Capa_1" xmlns="http://www.w3.org/2000/svg" xmlns:xlink="http://www.w3.org/1999/xlink" x="0px" y="0px"
	 viewBox="0 0 493.9 493.9" style="enable-background:new 0 0 493.9 493.9;" xml:space="preserve">
<style type="text/css">
	.st0{fill:#24BF87;}
</style>
<path id="XMLID_110_" class="st0" d="M246.9,3.9c-134,0-243,109-243,243.1c0,134,109,243.1,243,243.1C381,490,490,381,490,247
	C490,112.9,381,3.9,246.9,3.9z M246.9,78.9c92.7,0,168,75.4,168,168c0,23.8-5.1,46.4-14.1,66.9c-46.4-9.9-87.8-7.8-142.2,0.3
	c-27.7,4.1-62.2-3-86.8-16.5c-37.1-20.5-62.9-33.6-91.6-36.8c-0.4-4.6-1.4-9.1-1.4-13.9C78.9,154.3,154.3,78.9,246.9,78.9z"/>
<circle class="st0" cx="306" cy="233.7" r="49.8"/>
<circle class="st0" cx="213.1" cy="159.9" r="24"/>
</svg>
